<svg xmlns="http://www.w3.org/2000/svg" xmlns:xlink="http://www.w3.org/1999/xlink" version="1.1" x="0px" y="0px" viewBox="-5.734 -5.734 100 125" enable-background="new -5.734 -5.734 100 100" xml:space="preserve">
<path d="M22.933,58.933c-4.411,0-8,3.589-8,8s3.589,8,8,8s8-3.589,8-8S27.344,58.933,22.933,58.933z M22.933,69.933  c-1.654,0-3-1.346-3-3s1.346-3,3-3s3,1.346,3,3S24.587,69.933,22.933,69.933z"/><path d="M66.933,58.933c-4.411,0-8,3.589-8,8s3.589,8,8,8s8-3.589,8-8S71.344,58.933,66.933,58.933z M66.933,69.933  c-1.654,0-3-1.346-3-3s1.346-3,3-3s3,1.346,3,3S68.587,69.933,66.933,69.933z"/><path d="M82.436,25.214H5.596c-4.456,0-8.08,3.625-8.08,8.08v28.088c0,4.455,3.625,8.079,8.08,8.079h4.503  c1.381,0,2.5-1.119,2.5-2.5s-1.119-2.5-2.5-2.5H5.596c-1.698,0-3.08-1.381-3.08-3.079v-5.617h1c1.381,0,2.5-1.119,2.5-2.5  s-1.119-2.5-2.5-2.5h-1v-4h67.964l15.036,3.486v5.514h-4c-1.381,0-2.5,1.119-2.5,2.5s1.119,2.5,2.5,2.5h4v0.617  c0,1.698-1.382,3.079-3.08,3.079h-2.67c-1.381,0-2.5,1.119-2.5,2.5s1.119,2.5,2.5,2.5h2.67c4.455,0,8.08-3.624,8.08-8.079V33.294  C90.516,28.839,86.891,25.214,82.436,25.214z M15.366,41.766H2.516v-8.471c0-1.698,1.382-3.08,3.08-3.08h9.77V41.766z   M33.966,41.766h-13.6V30.214h13.6V41.766z M51.565,41.766h-12.6V30.214h12.6V41.766z M68.166,41.766H56.565V30.214h11.601V41.766z   M85.516,45.119l-12.35-2.863V30.214h9.27c1.698,0,3.08,1.382,3.08,3.08V45.119z"/><path d="M53.742,64.462H36.099c-1.381,0-2.5,1.119-2.5,2.5s1.119,2.5,2.5,2.5h17.643c1.381,0,2.5-1.119,2.5-2.5  S55.123,64.462,53.742,64.462z"/>
</svg>